<svg width="100" height="100" viewBox="0 0 100 100" fill="none" xmlns="http://www.w3.org/2000/svg">
<path d="M50 8.33333C72.975 8.33333 91.6667 27.025 91.6667 50C91.6667 72.975 72.975 91.6667 50 91.6667C27.025 91.6667 8.33333 72.975 8.33333 50C8.33333 27.025 27.025 8.33333 50 8.33333ZM50 0C22.3875 0 0 22.3875 0 50C0 77.6125 22.3875 100 50 100C77.6125 100 100 77.6125 100 50C100 22.3875 77.6125 0 50 0ZM74.3667 51.9125C75.2083 52.0708 75.2083 53.3 74.3708 53.4625C66.425 54.9667 49.1833 58.0917 47.0917 58.0917C44.0958 58.0917 41.6708 55.6667 41.6708 52.6708C41.6708 50.5375 44.8792 29.975 46.3583 21.65C46.5 20.85 47.6583 20.8958 47.7875 21.7083L51.8917 47.7L74.3667 51.9125Z" fill="black"/>
</svg>
