<svg width="55" height="55" viewBox="0 0 55 55" fill="none" xmlns="http://www.w3.org/2000/svg">
<g clip-path="url(#clip0)">
<path d="M55 10.4431C52.9765 11.3415 50.8017 11.9465 48.5192 12.2192C50.8498 10.8235 52.6396 8.61209 53.4806 5.97667C51.3013 7.26917 48.8858 8.20875 46.3146 8.71521C44.259 6.52209 41.3233 5.15167 38.0783 5.15167C30.7931 5.15167 25.4398 11.9488 27.0852 19.0048C17.71 18.535 9.39583 14.0433 3.82938 7.21646C0.873125 12.2879 2.29625 18.9223 7.31958 22.2819C5.4725 22.2223 3.73083 21.7158 2.21146 20.8702C2.08771 26.0975 5.83458 30.9879 11.2613 32.0765C9.67313 32.5073 7.93375 32.6081 6.16458 32.269C7.59917 36.7515 11.7654 40.0125 16.7063 40.1042C11.9625 43.8235 5.98583 45.485 0 44.7792C4.99354 47.9806 10.9267 49.8483 17.2975 49.8483C38.2479 49.8483 50.0844 32.1544 49.3694 16.2846C51.574 14.6919 53.4875 12.705 55 10.4431V10.4431Z" fill="url(#paint0_linear)"/>
</g>
<defs>
<linearGradient id="paint0_linear" x1="27.5" y1="5.15167" x2="27.5" y2="49.8483" gradientUnits="userSpaceOnUse">
<stop stop-color="#E82D2D"/>
<stop offset="1" stop-color="#192DE1"/>
</linearGradient>
<clipPath id="clip0">
<rect width="55" height="55" fill="white"/>
</clipPath>
</defs>
</svg>
