<svg width="100" height="100" viewBox="0 0 100 100" fill="none" xmlns="http://www.w3.org/2000/svg">
<g clip-path="url(#clip0)">
<path d="M64.4292 61.9208C63.425 64.8583 63.4208 64.2917 64.4292 67.2417L64.5833 68.1708C64.5833 69.1083 64.1208 70.0083 63.3 70.5792C60.6833 72.3917 61.0292 71.9333 60.0458 74.8833C59.6333 76.1125 58.4417 76.9458 57.0958 76.9458H57.0916C53.8666 76.9333 54.425 76.7625 51.8208 78.5917C51.2833 78.975 50.6416 79.1667 50 79.1667C49.3583 79.1667 48.7167 78.975 48.175 78.5917C45.5708 76.7625 46.1333 76.9375 42.9041 76.9458H42.8958C41.5541 76.9458 40.3625 76.1125 39.9541 74.8833C38.9708 71.9292 39.3041 72.3875 36.7 70.5792C35.8791 70.0125 35.4166 69.1042 35.4166 68.1708L35.5708 67.2458C36.5791 64.3083 36.5791 64.875 35.5708 61.925L35.4166 60.9958C35.4166 60.0583 35.8791 59.1583 36.7041 58.5875C39.3083 56.7792 38.9708 57.2375 39.9583 54.2833C40.3666 53.05 41.5583 52.2208 42.9 52.2208H42.9083C46.125 52.2292 45.5583 52.4167 48.1791 50.575C48.7166 50.1917 49.3583 50 50 50C50.6416 50 51.2833 50.1917 51.825 50.5708C54.4291 52.4 53.8667 52.225 57.0958 52.2167H57.1C58.4458 52.2167 59.6375 53.0458 60.05 54.2792C61.0333 57.2292 60.6875 56.7708 63.3041 58.5833C64.1208 59.1542 64.5875 60.0583 64.5875 60.9917L64.4292 61.9208ZM57.2917 64.5833C57.2917 60.5583 54.0291 57.2917 50 57.2917C45.9708 57.2917 42.7083 60.5583 42.7083 64.5833C42.7083 68.6083 45.9708 71.875 50 71.875C54.0291 71.875 57.2917 68.6083 57.2917 64.5833ZM44.5125 81.1083C42.9166 81.1083 41.6542 80.9542 40.6083 80.6625C39.9666 87.0542 37.775 91.85 33.3333 96.4792C35.1166 96.7 37.3958 96.2833 39.2333 95.3125C39.8958 96.6375 40.5916 98.2917 40.8333 100C45.0208 95.2125 47.6375 89.4708 48.6125 83.1875C46.6458 82.8083 46.0416 82.1542 44.5125 81.1083V81.1083ZM55.4875 81.1083C53.9542 82.1625 53.3166 82.8167 51.3916 83.1875C52.3666 89.4708 54.9833 95.2125 59.1666 100.004C59.4083 98.2958 60.1041 96.6417 60.7666 95.3167C62.6041 96.2833 64.8833 96.7042 66.6667 96.4833C62.2333 91.8625 60.0666 87.0417 59.4208 80.6625C58.3708 80.95 57.1042 81.1083 55.4875 81.1083V81.1083ZM8.33331 0V87.5H29.8083C31.2125 85.2708 32.0083 82.9 32.3166 79.8292L32.3791 79.1667H16.6666V8.33333H83.3333V79.1667H67.6458L67.7125 79.8167C68.025 82.9083 68.8167 85.2833 70.2042 87.5H91.6667V0H8.33331V0ZM75 20.8333H25V25H75V20.8333ZM75 29.1667H25V33.3333H75V29.1667ZM75 37.5H25V41.6667H75V37.5Z" fill="black"/>
</g>
<defs>
<clipPath id="clip0">
<rect width="100" height="100" fill="white"/>
</clipPath>
</defs>
</svg>
