<svg width="100" height="100" viewBox="0 0 100 100" fill="none" xmlns="http://www.w3.org/2000/svg">
<path d="M41.6667 81.25C41.6667 84.7042 38.8667 87.5 35.4167 87.5C31.9667 87.5 29.1667 84.7042 29.1667 81.25C29.1667 77.8 31.9667 75 35.4167 75C38.8667 75 41.6667 77.8 41.6667 81.25ZM56.25 75C52.8 75 50 77.7958 50 81.25C50 84.7042 52.8 87.5 56.25 87.5C59.7 87.5 62.5 84.7042 62.5 81.25C62.5 77.8 59.7 75 56.25 75ZM61.8167 54.1667L70.0542 25H0L12.2417 54.1667H61.8167ZM82.5208 12.5L68.2208 62.5H15.7333L19.2292 70.8333H74.3917L88.8667 20.8333H96.9042L100 12.5H82.5208Z" fill="black"/>
</svg>
