<svg width="100" height="100" viewBox="0 0 100 100" fill="none" xmlns="http://www.w3.org/2000/svg">
<path d="M97.5 55.8333L41.6667 0H8.33333C3.74989 0 0 3.74989 0 8.33333V41.6667L8.33333 50C12.5 47.5 17.5 45.8333 22.9168 45.8333C37.9168 45.8333 50 57.9168 50 72.9166C50 78.3331 48.3333 83.3331 45.8333 87.5L55.8333 97.5C59.1667 100.833 64.5832 100.833 67.5 97.5L97.5 67.5C100.833 64.1667 100.833 59.1667 97.5 55.8333ZM22.9168 29.1667C19.5834 29.1667 16.6667 26.2499 16.6667 22.9166C16.6667 19.5832 19.5834 16.6667 22.9168 16.6667C26.2501 16.6667 29.1669 19.5834 29.1669 22.9168C29.1669 26.2501 26.2499 29.1667 22.9168 29.1667Z" fill="black"/>
<path d="M22.9168 50C10.4166 50 0 60.4166 0 72.9168C0 85.417 10.4166 95.8336 22.9168 95.8336C35.417 95.8336 45.8336 85.417 45.8336 72.9168C45.8336 60.4166 35.4166 50 22.9168 50ZM20.8333 84.1667L10.8333 74.1667L13.7499 71.2499L20.8333 78.3333L33.7501 65.4168L36.6667 68.3333L20.8333 84.1667Z" fill="black"/>
</svg>
