<svg width="100" height="100" viewBox="0 0 100 100" fill="none" xmlns="http://www.w3.org/2000/svg">
<path d="M70.8333 50C57.0291 50 45.8333 61.1958 45.8333 75C45.8333 88.8042 57.0291 100 70.8333 100C84.6375 100 95.8333 88.8042 95.8333 75C95.8333 61.1958 84.6375 50 70.8333 50ZM72.9166 85.3083V87.5H70.8333V85.4208C68.675 85.3833 66.4458 84.8708 64.5833 83.9083L65.5333 80.4833C67.525 81.2583 70.175 82.0792 72.25 81.6083C74.6416 81.0667 75.1333 78.6042 72.4875 77.4208C70.55 76.5167 64.6166 75.7458 64.6166 70.6625C64.6166 67.825 66.7833 65.2792 70.8333 64.725V62.5H72.9166V64.6208C74.425 64.6625 76.1166 64.925 78.0041 65.4958L77.25 68.9292C75.65 68.3667 73.8833 67.8583 72.1583 67.9625C69.0583 68.1417 68.7833 70.8292 70.95 71.9542C74.5166 73.6292 79.1666 74.8708 79.1666 79.3417C79.1708 82.9167 76.3666 84.8208 72.9166 85.3083ZM79.6833 42.8958C84.4 41.9667 88.6916 40.2875 91.6666 37.9083V40.625C91.6666 42.7042 90.0583 44.6042 87.4708 46.1583C85.05 44.7542 82.4375 43.6583 79.6833 42.8958V42.8958ZM70.8333 18.75C81.9708 18.75 91.6666 14.5542 91.6666 9.375C91.6666 4.19583 81.9708 0 70.8333 0C59.7 0 50 4.19583 50 9.375C50 14.5542 59.7 18.75 70.8333 18.75ZM71.2208 10.3792C69.975 10.0042 66.1625 9.6875 66.1625 7.56667C66.1625 6.38333 67.5541 5.32917 70.1541 5.09583V4.16667H71.4916V5.04583C72.4666 5.06667 73.55 5.17083 74.7583 5.42083L74.275 6.84583C73.3541 6.63333 72.3291 6.43333 71.325 6.43333L71.025 6.4375C69.0166 6.52083 68.8541 7.63333 70.2416 8.1C72.5208 8.80417 75.5208 9.31667 75.5208 11.1833C75.5208 12.6708 73.7125 13.4667 71.4916 13.6667V14.5833H70.1541V13.7167C68.7875 13.7042 67.3375 13.4833 66.1458 13.0833L66.7583 11.6542C67.775 11.9167 69.0583 12.1792 70.2083 12.1792L71.075 12.1208C72.6125 11.9 72.9208 10.8708 71.2208 10.3792ZM25 64.5833C31.0208 64.5833 36.5625 63.3292 40.4375 61.3833C41.7333 58.5083 43.4125 55.8458 45.4291 53.4708C43.55 49.125 34.85 45.8333 25 45.8333C13.8666 45.8333 4.16663 50.0292 4.16663 55.2083C4.16663 60.3875 13.8666 64.5833 25 64.5833V64.5833ZM25.3875 56.2125C24.1416 55.8375 20.3291 55.5208 20.3291 53.4C20.3291 52.2167 21.725 51.1625 24.3208 50.9292V50H25.6583V50.8792C26.6333 50.9 27.7166 51.0042 28.925 51.2542L28.4375 52.6792C27.5208 52.4667 26.4958 52.2667 25.4916 52.2667L25.1916 52.2708C23.1833 52.3542 23.025 53.4667 24.4083 53.9333C26.6875 54.6375 29.6875 55.15 29.6875 57.0167C29.6875 58.5042 27.8791 59.3 25.6583 59.5V60.4167H24.3208V59.55C22.95 59.5375 21.5041 59.3167 20.3125 58.9167L20.925 57.4875C21.9416 57.75 23.225 58.0125 24.375 58.0125L25.2416 57.9542C26.775 57.7333 27.0875 56.7042 25.3875 56.2125V56.2125ZM42.0666 91.7583C38.2375 94.2167 31.9 95.8333 25 95.8333C13.8666 95.8333 4.16663 91.6375 4.16663 86.4583V83.7417C8.94163 87.5667 17.1208 89.5833 25 89.5833C30.15 89.5833 35.4125 88.7042 39.7875 87.0375C40.425 88.6792 41.1875 90.2583 42.0666 91.7583ZM4.16663 76.0417V73.3292C8.94163 77.15 17.1208 79.1667 25 79.1667C29.3291 79.1667 33.725 78.5375 37.6166 77.3542C37.7541 79.3083 38.0625 81.2125 38.525 83.0625C34.825 84.5083 30.0916 85.4167 25 85.4167C13.8666 85.4167 4.16663 81.2208 4.16663 76.0417V76.0417ZM4.16663 65.625V62.9083C8.94163 66.7333 17.1208 68.75 25 68.75C29.6958 68.75 34.4791 68.0167 38.6083 66.6292C38.075 68.6833 37.7333 70.8042 37.6041 72.9875C34.0458 74.2292 29.675 75 25 75C13.8666 75 4.16663 70.8042 4.16663 65.625ZM50 19.7917V17.075C54.775 20.9 62.9541 22.9167 70.8333 22.9167C78.7166 22.9167 86.8916 20.9 91.6666 17.075V19.7917C91.6666 24.9708 81.9708 29.1667 70.8333 29.1667C59.7 29.1667 50 24.9708 50 19.7917ZM50 40.625V37.9083C52.9708 40.2875 57.2666 41.9667 61.9833 42.8958C59.2291 43.6583 56.6208 44.7542 54.2 46.1583C51.6083 44.6042 50 42.7042 50 40.625V40.625ZM50 30.2083V27.4958C54.775 31.3167 62.9541 33.3333 70.8333 33.3333C78.7166 33.3333 86.8916 31.3167 91.6666 27.4958V30.2083C91.6666 35.3875 81.9708 39.5833 70.8333 39.5833C59.7 39.5833 50 35.3875 50 30.2083Z" fill="black"/>
</svg>
