<svg width="100" height="100" viewBox="0 0 100 100" fill="none" xmlns="http://www.w3.org/2000/svg">
<g clip-path="url(#clip0)">
<path d="M66.2917 55.5833L77.275 38.8083L75.3833 37.1167L60.0792 50.0292C57.2667 49.4542 54.2375 50.3125 52.1875 52.6042C49.1208 56.0333 49.4167 61.3042 52.85 64.3708C56.2833 67.4375 61.55 67.1417 64.6167 63.7083C66.6667 61.4167 67.1792 58.3125 66.2917 55.5833V55.5833ZM50 11.225V0H66.6667V11.225C60.6708 10.2125 55.8667 10.2333 50 11.225ZM86.8792 19.825L92.7417 13.9625L98.6333 19.8542L93.1292 25.3583C91.2042 23.3417 89.1125 21.4958 86.8792 19.825V19.825ZM8.33333 37.5H41.6667V45.8333H8.33333V37.5ZM0 54.1667H33.3333V62.5H0V54.1667ZM12.5 70.8333H41.6667V79.1667H12.5V70.8333ZM100 58.3333C100 81.3458 81.3458 100 58.3333 100C46.7083 100 36.25 95.1875 28.7042 87.5H42.3708C47.1125 90.1292 52.5333 91.6667 58.3333 91.6667C76.7125 91.6667 91.6667 76.7125 91.6667 58.3333C91.6667 39.9542 76.7125 25 58.3333 25C52.5333 25 47.1125 26.5375 42.3708 29.1667H28.7042C36.25 21.4792 46.7083 16.6667 58.3333 16.6667C81.3458 16.6667 100 35.3208 100 58.3333Z" fill="black"/>
</g>
<defs>
<clipPath id="clip0">
<rect width="100" height="100" fill="white"/>
</clipPath>
</defs>
</svg>
